<svg height="512" viewBox="0 0 64 64" width="512" xmlns="http://www.w3.org/2000/svg"><g id="Layer_26" data-name="Layer 26"><path d="m10 16h44a4 4 0 0 1 4 4v30a0 0 0 0 1 0 0h-52a0 0 0 0 1 0 0v-30a4 4 0 0 1 4-4z" fill="#a0a8b2"/><path d="m10 20h44v26h-44z" fill="#c7e2fb"/><path d="m2 58v-4l4-4h52l4 4v4a4 4 0 0 1 -4 4h-52a4 4 0 0 1 -4-4z" fill="#c1c8d1"/><path d="m2 54v4a4 4 0 0 0 4 4h52a4 4 0 0 0 4-4v-4z" fill="#a0a8b2"/><circle cx="32" cy="17" fill="#4472b0" r="15"/><path d="m50 5h6v-3l6 5-6 5v-3h-6z" fill="#f7d881"/><path d="m14 5h-6v-3l-6 5 6 5v-3h6z" fill="#f7d881"/><path d="m59 49.59v-29.59a5 5 0 0 0 -5-5h-6.14a16 16 0 0 0 -15.76-14h-.1a16 16 0 0 0 -15.86 14h-6.14a5 5 0 0 0 -5 5v29.59l-3.71 3.7a1 1 0 0 0 -.29.71v4a5 5 0 0 0 5 5h52a5 5 0 0 0 5-5v-4a1 1 0 0 0 -.29-.71zm-1.41 1.41 2 2h-55.18l2-2zm-36.14-43.17a15.58 15.58 0 0 0 3.67 2.55 20.05 20.05 0 0 0 -1.07 5.62h-6a13.86 13.86 0 0 1 3.4-8.17zm24.55 8.17h-6a20.05 20.05 0 0 0 -1.07-5.62 15.58 15.58 0 0 0 3.67-2.55 13.86 13.86 0 0 1 3.4 8.17zm-21.9 2a20.05 20.05 0 0 0 1.07 5.62 15.58 15.58 0 0 0 -3.67 2.55 13.86 13.86 0 0 1 -3.45-8.17zm7 11.58a18.58 18.58 0 0 1 -3.29-4.87 13.07 13.07 0 0 1 3.19-.66zm2-5.53a13.07 13.07 0 0 1 3.29.66 18.26 18.26 0 0 1 -3.39 4.84zm0-2v-4.05h5a18.34 18.34 0 0 1 -1.1 4.85 15.58 15.58 0 0 0 -4-.8zm-.1-6.05v-4a15.58 15.58 0 0 0 4-.8 18.34 18.34 0 0 1 1 4.8zm0-6v-5.55a18.26 18.26 0 0 1 3.29 4.84 13.07 13.07 0 0 1 -3.29.71zm-2 0a13.07 13.07 0 0 1 -3.29-.66 18.58 18.58 0 0 1 3.29-4.92zm0 2v4h-4.95a18.34 18.34 0 0 1 .95-4.85 15.58 15.58 0 0 0 4 .85zm0 6v4.05a15.58 15.58 0 0 0 -4 .8 18.34 18.34 0 0 1 -.95-4.85zm-5.13 7.48a20.41 20.41 0 0 0 3.52 5.27 14 14 0 0 1 -6.52-3.16 13.13 13.13 0 0 1 3-2.11zm12.26 0a13.13 13.13 0 0 1 3 2.11 14 14 0 0 1 -6.52 3.16 20.41 20.41 0 0 0 3.52-5.27zm4.42.69a15.58 15.58 0 0 0 -3.67-2.55 20.05 20.05 0 0 0 1.12-5.62h6a13.86 13.86 0 0 1 -3.45 8.17zm-4.42-17.65a20.41 20.41 0 0 0 -3.52-5.27 14 14 0 0 1 6.52 3.16 13.13 13.13 0 0 1 -3 2.11zm-12.26 0a13.13 13.13 0 0 1 -3-2.11 14 14 0 0 1 6.52-3.16 20.41 20.41 0 0 0 -3.52 5.27zm6.13 24.48a16 16 0 0 0 15.47-12h5.53v24h-42v-24h5.53a16 16 0 0 0 15.47 12zm-22-16h6a16.52 16.52 0 0 0 .14 2h-6.14a1 1 0 0 0 -1 1v26a1 1 0 0 0 1 1h44a1 1 0 0 0 1-1v-26a1 1 0 0 0 -1-1h-6.14a16.52 16.52 0 0 0 .14-2h6a3 3 0 0 1 3 3v29h-50v-29a3 3 0 0 1 3-3zm48 44h-52a3 3 0 0 1 -3-3v-3h58v3a3 3 0 0 1 -3 3z"/><path d="m19.71 43a1 1 0 0 0 1.12-.41l1.17-1.79 1.17 1.75a1 1 0 0 0 .83.45 1 1 0 0 0 .29 0 1 1 0 0 0 .71-1v-6h-2v2.7l-.17-.25a1 1 0 0 0 -1.66 0l-.17.25v-2.7h-2v6a1 1 0 0 0 .71 1z"/><path d="m27.71 43a1 1 0 0 0 1.12-.41l1.17-1.79 1.17 1.75a1 1 0 0 0 .83.45 1 1 0 0 0 .29 0 1 1 0 0 0 .71-1v-6h-2v2.7l-.17-.25a1 1 0 0 0 -1.66 0l-.17.25v-2.7h-2v6a1 1 0 0 0 .71 1z"/><path d="m35.71 43a1 1 0 0 0 1.12-.41l1.17-1.79 1.17 1.75a1 1 0 0 0 .83.45 1 1 0 0 0 .29 0 1 1 0 0 0 .71-1v-6h-2v2.7l-.17-.25a1 1 0 0 0 -1.66 0l-.17.25v-2.7h-2v6a1 1 0 0 0 .71 1z"/><path d="m43 41h2v2h-2z"/><path d="m50 10h5v2a1 1 0 0 0 .58.91 1 1 0 0 0 .42.09 1 1 0 0 0 .64-.23l6-5a1 1 0 0 0 0-1.54l-6-5a1 1 0 0 0 -1.64.77v2h-5a1 1 0 0 0 -1 1v4a1 1 0 0 0 1 1zm1-4h5a1 1 0 0 0 1-1v-.87l3.44 2.87-3.44 2.87v-.87a1 1 0 0 0 -1-1h-5z"/><path d="m7.36 12.77a1 1 0 0 0 .64.23 1 1 0 0 0 .42-.09 1 1 0 0 0 .58-.91v-2h5a1 1 0 0 0 1-1v-4a1 1 0 0 0 -1-1h-5v-2a1 1 0 0 0 -1.64-.77l-6 5a1 1 0 0 0 0 1.54zm-.36-8.64v.87a1 1 0 0 0 1 1h5v2h-5a1 1 0 0 0 -1 1v.87l-3.44-2.87z"/></g></svg>